inDegrees=no
num_controls=7
num_derivatives=13
num_iterations=204
num_multipliers=7
num_parameters=0
num_slacks=7
num_states=26
objective=0.506144
objective_accelerations=0.042984
objective_balance=0.003785
objective_effort=0.031915
objective_height=0.315598
objective_ligament=0.111862
solver_duration=2626.728536
status=Solve_Succeeded
success=true
DataType=double
version=3
OpenSimVersion=4.5
endheader
time	/jointset/ground_pelvis/pelvis_tilt/value	/jointset/ground_pelvis/pelvis_tx/value	/jointset/ground_pelvis/pelvis_ty/value	/jointset/hip_l/hip_flexion_l/value	/jointset/hip_l/hip_adduction_l/value	/jointset/hip_l/hip_rotation_l/value	/jointset/back/lumbar_extension/value	/jointset/patellofemoral_l/patellar_flexion_l/value	/jointset/knee_l/knee_flexion_l/value	/jointset/knee_l/knee_adduction_l/value	/jointset/knee_l/knee_rotation_l/value	/jointset/ankle_l/ankle_angle_l/value	/jointset/subtalar_l/subtalar_angle_l/value	/jointset/ground_pelvis/pelvis_tilt/speed	/jointset/ground_pelvis/pelvis_tx/speed	/jointset/ground_pelvis/pelvis_ty/speed	/jointset/hip_l/hip_flexion_l/speed	/jointset/hip_l/hip_adduction_l/speed	/jointset/hip_l/hip_rotation_l/speed	/jointset/back/lumbar_extension/speed	/jointset/patellofemoral_l/patellar_flexion_l/speed	/jointset/knee_l/knee_flexion_l/speed	/jointset/knee_l/knee_adduction_l/speed	/jointset/knee_l/knee_rotation_l/speed	/jointset/ankle_l/ankle_angle_l/speed	/jointset/subtalar_l/subtalar_angle_l/speed	/forceset/tau_hip_flexion_l	/forceset/tau_hip_adduction_l	/forceset/tau_hip_rotation_l	/forceset/tau_knee_flexion_l	/forceset/tau_ankle_angle_l	/forceset/tau_subtalar_angle_l	/forceset/tau_lumbar_extension	lambda_cid13_p0	lambda_cid13_p1	lambda_cid13_p2	lambda_cid13_p3	lambda_cid13_p4	lambda_cid13_p5	lambda_cid14_p0	/jointset/ground_pelvis/pelvis_tilt/accel	/jointset/ground_pelvis/pelvis_tx/accel	/jointset/ground_pelvis/pelvis_ty/accel	/jointset/hip_l/hip_flexion_l/accel	/jointset/hip_l/hip_adduction_l/accel	/jointset/hip_l/hip_rotation_l/accel	/jointset/back/lumbar_extension/accel	/jointset/patellofemoral_l/patellar_flexion_l/accel	/jointset/knee_l/knee_flexion_l/accel	/jointset/knee_l/knee_adduction_l/accel	/jointset/knee_l/knee_rotation_l/accel	/jointset/ankle_l/ankle_angle_l/accel	/jointset/subtalar_l/subtalar_angle_l/accel	gamma_cid13_p0	gamma_cid13_p1	gamma_cid13_p2	gamma_cid13_p3	gamma_cid13_p4	gamma_cid13_p5	gamma_cid14_p0
1.5	-0.03035345631580501	-0.03588251788693952	0.8617609997370403	0.6823266306702629	-0.2974767577815076	-0.1844445853551988	-0.7954243132728654	0.662676404485614	0.6626764044854886	-0.06783612228665299	-0.1708942581931526	0.0677801752498727	0.0213112929303094	0.4876812992625836	0.2534289419635468	0.3890456522055536	-2.025785804867064	0.1873850531021618	-0.6463673841636013	0.8542541426082292	-1.78532305549685	-1.785323055496931	0.06351841289312127	-0.01587843641231004	-0.2957929718353033	0.1049859902145154	-0.2225710512133162	0.03718358978637684	-0.007685223895374225	-0.1821110917909185	0.103242612898239	0.03287841171829604	0.2915479480687012	-9.261886263335784	-13.97741935644617	3.28184941210047	-10.14234109970666	-666.4489625370147	-63.78692326806657	-19.15707899557485	0.2273330550956535	0.742628665426466	-0.5979050704457045	-0.4984734405318006	0.5693348269919961	0.1689385870625774	1.911740889128482	-0.1083193704744683	-0.1083193704744737	-0.05286402101671087	-0.028025304810753	0.442150957826446	0.7202836025155193	2.26429656079037e-07	7.793366407454144e-07	-9.761118796029869e-07	2.798761001991117e-08	2.485066989282091e-07	1.993727225636351e-07	2.317969992611873e-07
1.51	-0.02546579777513173	-0.0333113586521195	0.8656209212306246	0.6620456754180378	-0.2955758471971676	-0.190898839124367	-0.7867878133600471	0.6448196060235986	0.6448196060233979	-0.06720622699086437	-0.1710552544208708	0.06484442449310986	0.02239561701346612	0.4897752711028438	0.2607724064601524	0.3828714687680608	-2.030145252336946	0.1927507505752625	-0.6443892886230612	0.8729069927569582	-1.785804933774532	-1.785804933774576	0.06240057620920242	-0.01631176689205123	-0.2913076841699372	0.1118432437210426	-0.2136476895056349	0.03573478136022171	-0.007675408246005031	-0.1806260657771278	0.1047379959655935	0.03183497630392998	0.2835175927848305	-8.57586380832298	-13.6825334293047	3.278424554141991	-10.12500616621278	-662.2538096406698	-63.8624419949125	-19.71332949921314	0.1891819332977688	0.7256365733184416	-0.6371996886747694	-0.365654364996464	0.5132496901105589	0.2265802529459694	1.821229997866899	0.01658731815749299	0.01658731816292404	-0.1501573636047112	-0.0498336669012027	0.4591712289308305	0.6630951563619614	2.247716457985637e-07	7.91152662478685e-07	-9.717816124014929e-07	2.935658755710579e-08	2.559377813209728e-07	2.158285345657435e-07	2.309252082143132e-07
1.52	-0.02055944897909992	-0.03066767852602511	0.8694170959481791	0.6417289308981531	-0.2936226671415714	-0.1973304448950508	-0.7779689503617181	0.6269649306537195	0.6269649306534484	-0.06658929283621062	-0.1712203533028604	0.06195501732460807	0.02354744341801611	0.4914193503353789	0.2679331202184193	0.3762962969996005	-2.032943658398022	0.1978389473540299	-0.6418377844666758	0.8907267597105604	-1.784898437069315	-1.784898437069323	0.06092618466427329	-0.01669896726560905	-0.2865242541830039	0.1184864544931973	-0.2047243277979645	0.03428597293405525	-0.007665592596581983	-0.1791410397633449	0.1062333790329417	0.03079154088954865	0.2754872375009547	-7.891476272714896	-13.38906111470978	3.277167646967629	-10.14817072347783	-658.1085899861832	-63.98701556834503	-20.24308759716776	0.1373545335505301	0.7060785177587957	-0.6781027366391753	-0.1862651587705607	0.5138346881253151	0.2836203102316174	1.745124250103128	0.1693556261052263	0.1693556261052287	-0.1241749932187667	-0.01879928357409593	0.501779422140037	0.6774750556410489	2.221965762096475e-07	7.973794831987404e-07	-9.637922441050736e-07	3.028674912131285e-08	2.622988784177243e-07	2.30671714465733e-07	2.289585749834838e-07
1.53	-0.0156389604817468	-0.02795339848298292	0.8731455801795642	0.6213920190298138	-0.2916200429400109	-0.2037337720376803	-0.7689762149380607	0.6091261596484376	0.60912615964834	-0.06598887692449532	-0.1713890478840253	0.0591148106011752	0.02476455239004423	0.4925979163811112	0.2748825065461579	0.3693397572816966	-2.034173581032539	0.2026324713255022	-0.6387393955720269	0.9076643580921648	-1.782630249373892	-1.782630249373847	0.05909479248318287	-0.01702961428607984	-0.2814794798440901	0.1248893562069088	-0.1956546307733678	0.03267600057543076	-0.007656582079700957	-0.1778837202753255	0.1077772862622325	0.02959399193477648	0.2673223797128884	-7.215925226816109	-13.02455125697921	3.261661715773926	-10.04404140176462	-654.1598444829498	-64.03602478775737	-20.74301150402994	0.09606463411276873	0.6833176137622927	-0.713494324709422	-0.05155997752782675	0.4541010097465434	0.3364035694976274	1.644682592759987	0.2893327026551674	0.2893327026632659	-0.2218579826587065	-0.03884551235117822	0.5114970743212391	0.6147836890980202	2.186471311055109e-07	7.976677778422547e-07	-9.519150808952963e-07	3.075066871422064e-08	2.675231161374628e-07	2.438014727572209e-07	2.25828671932202e-07
1.54	-0.01070909492513591	-0.02517083479196703	0.8768026860667015	0.6010507671027776	-0.2895710855471207	-0.2101034242132802	-0.759818782538474	0.5913168269923875	0.5913168269924682	-0.0654086222650036	-0.1715607785556131	0.05632618574804191	0.02604430757118173	0.4932947621879833	0.2815898498131558	0.3620206281500379	-2.033811670136476	0.2071055856205167	-0.6351027910607387	0.9236661548966062	-1.779010767222692	-1.779010767222594	0.05689393421791072	-0.01730618534925554	-0.2762078801230073	0.1310156963150953	-0.1865849337487815	0.03106602821679602	-0.007647571562771537	-0.1766264007873135	0.1093211934915176	0.02839644297999043	0.2591575219248174	-6.542581847096379	-12.66093289220599	3.247758625879064	-9.976505902040026	-650.264452050043	-64.13224723656275	-21.20985719705857	0.04101048577839349	0.6576699056107209	-0.7506206193901156	0.1321015473451981	0.449752752833712	0.3912634335594053	1.557963934670435	0.4396145172607973	0.4396145172607772	-0.198068210055112	-0.007984092115094307	0.547144498573937	0.6221627345360987	2.142732400358131e-07	7.919384498504777e-07	-9.362082353910792e-07	3.057916718417241e-08	2.719390012222223e-07	2.546623142019391e-07	2.21555807010415e-07
1.55	-0.005774679239925489	-0.02232248074074264	0.8803848578288369	0.5807210783975796	-0.2874790322933331	-0.216434062674101	-0.7505061179444051	0.5735504111730108	0.5735504111731936	-0.0648521893859044	-0.1717349088734935	0.05359135280919754	0.02738390499864285	0.4935070824639183	0.2880329235887095	0.3543598096508361	-2.031859682791165	0.2112439722211289	-0.6309380431728658	0.9386988619735623	-1.774046492964986	-1.774046492964934	0.05432746775223282	-0.0175062577041178	-0.2707267918994909	0.1368489484637135	-0.1774767477363618	0.02930903198039867	-0.00763881933849253	-0.1755605306101989	0.1109289478912318	0.02706477258868276	0.2509805451609188	-5.87566689593495	-12.23555198875253	3.221280330579043	-9.821986794107728	-646.6397322280368	-64.16335433371553	-21.64045636349325	-0.0008309323809186733	0.6304264220688461	-0.7818441872063535	0.266729559901522	0.3867158536547422	0.4423172853761415	1.450738802546255	0.558676861082065	0.5586768610752073	-0.2956236723328364	-0.02416553092554225	0.5534064006273063	0.5556632352761998	2.089494438318817e-07	7.792757740397785e-07	-9.160889298519642e-07	2.967555001245747e-08	2.75423523488419e-07	2.629089688449446e-07	2.159660512378289e-07
